ply
format ascii 1.0
comment Created by Blender 3.0.1 - www.blender.org
element vertex 24
property float x
property float y
property float z
property float nx
property float ny
property float nz
property uchar red
property uchar green
property uchar blue
property uchar alpha
element face 12
property list uchar uint vertex_indices
end_header
-0.869949 -1.138133 -0.973572 0.379927 -0.842668 -0.381532 34 255 22 255
1.629802 -0.547203 0.210508 0.379927 -0.842668 -0.381532 34 255 22 255
-0.006237 -1.544467 0.783953 0.379927 -0.842668 -0.381532 34 255 22 255
1.629802 -0.547203 0.210508 0.818020 0.498632 -0.286723 34 255 22 255
0.006237 1.544467 -0.783953 0.818020 0.498632 -0.286723 34 255 22 255
0.869949 1.138133 0.973572 0.818020 0.498632 -0.286723 34 255 22 255
0.766090 -0.140869 -1.547017 -0.431856 0.203167 -0.878762 34 255 22 255
-1.629802 0.547203 -0.210508 -0.431856 0.203167 -0.878762 34 255 22 255
0.006237 1.544467 -0.783953 -0.431856 0.203167 -0.878762 34 255 22 255
-0.766090 0.140869 1.547017 -0.379927 0.842668 0.381532 34 255 22 255
0.006237 1.544467 -0.783953 -0.379927 0.842668 0.381532 34 255 22 255
-1.629802 0.547203 -0.210508 -0.379927 0.842668 0.381532 34 255 22 255
-0.006237 -1.544467 0.783953 0.431856 -0.203167 0.878762 34 255 22 255
0.869949 1.138133 0.973572 0.431856 -0.203167 0.878762 34 255 22 255
-0.766090 0.140869 1.547017 0.431856 -0.203167 0.878762 34 255 22 255
-0.869949 -1.138133 -0.973572 -0.818020 -0.498632 0.286723 34 255 22 255
-0.766090 0.140869 1.547017 -0.818020 -0.498632 0.286723 34 255 22 255
-1.629802 0.547203 -0.210508 -0.818020 -0.498632 0.286723 34 255 22 255
0.766090 -0.140869 -1.547017 0.379927 -0.842668 -0.381532 34 255 22 255
0.766090 -0.140869 -1.547017 0.818020 0.498632 -0.286723 34 255 22 255
-0.869949 -1.138133 -0.973572 -0.431856 0.203167 -0.878762 34 255 22 255
0.869949 1.138133 0.973572 -0.379927 0.842668 0.381532 34 255 22 255
1.629802 -0.547203 0.210508 0.431856 -0.203167 0.878762 34 255 22 255
-0.006237 -1.544467 0.783953 -0.818020 -0.498632 0.286723 34 255 22 255
3 0 1 2
3 3 4 5
3 6 7 8
3 9 10 11
3 12 13 14
3 15 16 17
3 0 18 1
3 3 19 4
3 6 20 7
3 9 21 10
3 12 22 13
3 15 23 16
