ply
format ascii 1.0
comment Created in Blender version 4.1.1
element vertex 90
property float x
property float y
property float z
property float nx
property float ny
property float nz
property uchar red
property uchar green
property uchar blue
property uchar alpha
element face 152
property list uchar uint vertex_indices
end_header
-3.9720504 -4.0029206 0 -0.5773367 -0.57734454 -0.57736945 14 254 33 255
-3.9720504 -4.0029206 0.25635147 -0.57735616 -0.57734734 0.57734734 14 254 33 255
-3.9720504 3.9868188 0 -0.57735616 0.57734734 -0.57734734 14 254 33 255
-3.9720504 3.9868188 0.25635147 -0.5773367 0.57734454 0.57736945 14 254 33 255
3.9934924 -4.0029206 0 0.57735616 -0.57734734 -0.57734734 14 254 33 255
3.9934924 -4.0029206 0.25635147 0.5773367 -0.57734454 0.57736945 14 254 33 255
3.9934924 3.9868188 0 0.5773367 0.57734454 -0.57736945 14 254 33 255
3.9934924 3.9868188 0.25635147 0.57735616 0.57734734 0.57734734 14 254 33 255
-3.8501773 -3.9343982 0.25635195 -0.57735556 -0.5773297 -0.5773655 82 240 254 255
-3.8501773 -3.9343982 3.6588883 -0.5773497 -0.57735056 0.57735056 82 240 254 255
-3.8501773 -3.4521337 0.25635195 -0.5773497 0.57735056 -0.57735056 82 240 254 255
-3.8501773 -3.4521337 3.6588883 -0.57735556 0.5773297 0.5773655 82 240 254 255
3.9284286 -3.9343982 0.25635195 0.5773497 -0.57735056 -0.57735056 82 240 254 255
3.9284286 -3.9343982 3.6588883 0.57735556 -0.5773297 0.5773655 82 240 254 255
3.9284286 -3.4521337 0.25635195 0.57735556 0.5773297 -0.5773655 82 240 254 255
3.9284286 -3.4521337 3.6588883 0.5773497 0.57735056 0.57735056 82 240 254 255
3.0856543 -3.4583693 0.25635242 -0.57735574 -0.57733446 -0.5773606 254 124 249 255
3.0856543 -3.4583693 3.6455173 -0.57733446 -0.5773582 0.5773581 254 124 249 255
3.0856543 3.9316525 0.25635242 -0.57733446 0.5773582 -0.5773581 254 124 249 255
3.0856543 3.9316525 3.6455173 -0.57735574 0.57733446 0.5773606 254 124 249 255
3.9053793 -3.4583693 0.25635242 0.57733446 -0.5773582 -0.5773581 254 124 249 255
3.9053793 -3.4583693 3.6455173 0.57735574 -0.57733446 0.5773606 254 124 249 255
3.9053793 3.9316525 0.25635242 0.57735574 0.57733446 -0.5773606 254 124 249 255
3.9053793 3.9316525 3.6455173 0.57733446 0.5773582 0.5773581 254 124 249 255
-3.8340936 3.601893 0.256351 -0.57735366 -0.5773343 -0.57736284 254 131 25 255
-3.8340936 3.601893 3.652886 -0.57735634 -0.5773472 0.5773472 254 131 25 255
-3.8340936 3.8609147 0.256351 -0.57735634 0.5773472 -0.5773472 254 131 25 255
-3.8340936 3.8609147 3.652886 -0.57735366 0.5773343 0.57736284 254 131 25 255
3.0703945 3.601893 0.256351 0.57735634 -0.5773472 -0.5773472 254 131 25 255
3.0703945 3.601893 3.652886 0.57735366 -0.5773343 0.57736284 254 131 25 255
3.0703945 3.8609147 0.256351 0.57735366 0.5773343 -0.57736284 254 131 25 255
3.0703945 3.8609147 3.652886 0.57735634 0.5773472 0.5773472 254 131 25 255
-3.7781448 -3.4616346 0.25635052 -0.57735157 -0.5773399 -0.57735926 254 254 254 255
-3.7781448 -3.4616346 3.6158934 -0.577336 -0.57735735 0.57735735 254 254 254 255
-3.7781448 3.5852952 0.25635052 -0.577336 0.57735735 -0.57735735 254 254 254 255
-3.7781448 3.5852952 3.6158934 -0.57735157 0.5773399 0.57735926 254 254 254 255
-3.1337614 -3.4616346 0.25635052 0.577336 -0.57735735 -0.57735735 254 254 254 255
-3.1337614 -3.4616346 3.6158934 0.57735157 -0.5773399 0.57735926 254 254 254 255
-3.1337614 3.5852952 0.25635052 0.57735157 0.5773399 -0.57735926 254 254 254 255
-3.1337614 3.5852952 3.6158934 0.577336 0.57735735 0.57735735 254 254 254 255
-3.6304722 -3.7837896 3.6455173 -0.57733667 -0.5773451 -0.5773691 254 254 254 255
-3.6304722 -3.7837896 3.8853722 -0.5773556 -0.5773476 0.5773476 254 254 254 255
-3.6304722 3.8901896 3.6455173 -0.5773556 0.5773476 -0.5773476 254 254 254 255
-3.6304722 3.8901896 3.8853722 -0.57733667 0.5773451 0.5773691 254 254 254 255
3.7093868 -3.7837896 3.6455173 0.5773556 -0.5773476 -0.5773476 254 254 254 255
3.7093868 -3.7837896 3.8853722 0.57733667 -0.5773451 0.5773691 254 254 254 255
3.7093868 3.8901896 3.6455173 0.57733667 0.5773451 -0.5773691 254 254 254 255
3.7093868 3.8901896 3.8853722 0.5773556 0.5773476 0.5773476 254 254 254 255
0 0 0.8335006 -1.4297343e-06 0 -1 82 240 254 255
0.7236073 -0.5257253 1.3862811 0.72360766 -0.52572685 -0.44721717 82 240 254 255
-0.27638802 -0.85064924 1.3862808 -0.27638915 -0.8506496 -0.4472183 82 240 254 255
-0.8944262 0 1.3862851 -0.8944264 0 -0.44721517 82 240 254 255
-0.27638802 0.85064924 1.3862808 -0.2763892 0.85064954 -0.44721836 82 240 254 255
0.7236073 0.5257253 1.3862811 0.72360766 0.52572685 -0.44721717 82 240 254 255
0.27638802 -0.85064924 2.2807205 0.2763892 -0.8506496 0.44721842 82 240 254 255
-0.7236073 -0.5257253 2.2807202 -0.7236077 -0.5257268 0.4472171 82 240 254 255
-0.7236073 0.5257253 2.2807202 -0.72360766 0.52572685 0.44721717 82 240 254 255
0.27638802 0.85064924 2.2807205 0.27638918 0.8506496 0.4472184 82 240 254 255
0.8944262 0 2.2807162 0.8944264 0 0.44721517 82 240 254 255
0 0 2.8335006 1.4349907e-06 2.6281881e-09 1 82 240 254 255
-0.16245556 -0.49999526 0.9828462 -0.16245703 -0.4999964 -0.85065347 82 240 254 255
0.42532268 -0.3090114 0.98284644 0.4253235 -0.30901298 -0.85065323 82 240 254 255
0.26286882 -0.80901164 1.307763 0.26286894 -0.8090131 -0.5257353 82 240 254 255
0.85064787 0 1.3077648 0.8506489 1.0611715e-08 -0.52573436 82 240 254 255
0.42532268 0.3090114 0.98284644 0.4253235 0.30901298 -0.85065323 82 240 254 255
-0.5257298 0 0.98284894 -0.52572966 -5.305858e-09 -0.85065174 82 240 254 255
-0.6881894 -0.49999693 1.3077644 -0.6881894 -0.49999878 -0.52573425 82 240 254 255
-0.16245556 0.49999526 0.9828462 -0.162457 0.4999964 -0.85065347 82 240 254 255
-0.6881894 0.49999693 1.3077644 -0.6881894 0.49999878 -0.52573425 82 240 254 255
0.26286882 0.80901164 1.307763 0.26286894 0.8090131 -0.5257353 82 240 254 255
0.95105785 -0.30901262 1.8335006 0.9510571 -0.30901518 -2.0162288e-07 82 240 254 255
0.95105785 0.30901262 1.8335006 0.9510571 0.30901518 -2.1223461e-07 82 240 254 255
0 -0.99999994 1.8335006 0 -1 -1.0611743e-08 82 240 254 255
0.5877856 -0.8090167 1.8335006 0.587786 -0.8090164 2.0162317e-07 82 240 254 255
-0.95105785 -0.30901262 1.8335006 -0.9510571 -0.3090152 2.3080514e-07 82 240 254 255
-0.5877856 -0.8090167 1.8335006 -0.587786 -0.8090164 -2.2815256e-07 82 240 254 255
-0.5877856 0.8090167 1.8335006 -0.58778596 0.8090164 -2.4937603e-07 82 240 254 255
-0.95105785 0.30901262 1.8335006 -0.9510571 0.30901518 2.281522e-07 82 240 254 255
0.5877856 0.8090167 1.8335006 0.5877861 0.8090164 1.8305263e-07 82 240 254 255
0 0.99999994 1.8335006 9.948509e-10 1 -2.6529356e-08 82 240 254 255
0.6881894 -0.49999693 2.3592367 0.6881894 -0.49999878 0.5257343 82 240 254 255
-0.26286882 -0.80901164 2.3592381 -0.26286894 -0.80901307 0.52573544 82 240 254 255
-0.85064787 0 2.3592365 -0.8506489 -1.5917573e-08 0.52573436 82 240 254 255
-0.26286882 0.80901164 2.3592381 -0.2628689 0.8090131 0.5257353 82 240 254 255
0.6881894 0.49999693 2.3592367 0.6881894 0.49999872 0.52573425 82 240 254 255
0.16245556 -0.49999526 2.684155 0.16245702 -0.49999642 0.85065347 82 240 254 255
0.5257298 0 2.6841524 0.52572966 2.6529292e-09 0.85065174 82 240 254 255
-0.42532268 -0.3090114 2.6841547 -0.4253235 -0.30901304 0.85065323 82 240 254 255
-0.42532268 0.3090114 2.6841547 -0.42532343 0.309013 0.85065323 82 240 254 255
0.16245556 0.49999526 2.684155 0.162457 0.49999642 0.85065347 82 240 254 255
3 1 2 0
3 3 6 2
3 7 4 6
3 5 0 4
3 6 0 2
3 3 5 7
3 1 3 2
3 3 7 6
3 7 5 4
3 5 1 0
3 6 4 0
3 3 1 5
3 9 10 8
3 11 14 10
3 15 12 14
3 13 8 12
3 14 8 10
3 11 13 15
3 9 11 10
3 11 15 14
3 15 13 12
3 13 9 8
3 14 12 8
3 11 9 13
3 17 18 16
3 19 22 18
3 23 20 22
3 21 16 20
3 22 16 18
3 19 21 23
3 17 19 18
3 19 23 22
3 23 21 20
3 21 17 16
3 22 20 16
3 19 17 21
3 25 26 24
3 27 30 26
3 31 28 30
3 29 24 28
3 30 24 26
3 27 29 31
3 25 27 26
3 27 31 30
3 31 29 28
3 29 25 24
3 30 28 24
3 27 25 29
3 33 34 32
3 35 38 34
3 39 36 38
3 37 32 36
3 38 32 34
3 35 37 39
3 33 35 34
3 35 39 38
3 39 37 36
3 37 33 32
3 38 36 32
3 35 33 37
3 41 42 40
3 43 46 42
3 47 44 46
3 45 40 44
3 46 40 42
3 43 45 47
3 41 43 42
3 43 47 46
3 47 45 44
3 45 41 40
3 46 44 40
3 43 41 45
3 48 61 60
3 49 61 63
3 48 60 65
3 48 65 67
3 48 67 64
3 49 63 70
3 50 62 72
3 51 66 74
3 52 68 76
3 53 69 78
3 49 70 73
3 50 72 75
3 51 74 77
3 52 76 79
3 53 78 71
3 54 80 85
3 55 81 87
3 56 82 88
3 57 83 89
3 58 84 86
3 86 89 59
3 86 84 89
3 84 57 89
3 89 88 59
3 89 83 88
3 83 56 88
3 88 87 59
3 88 82 87
3 82 55 87
3 87 85 59
3 87 81 85
3 81 54 85
3 85 86 59
3 85 80 86
3 80 58 86
3 71 84 58
3 71 78 84
3 78 57 84
3 79 83 57
3 79 76 83
3 76 56 83
3 77 82 56
3 77 74 82
3 74 55 82
3 75 81 55
3 75 72 81
3 72 54 81
3 73 80 54
3 73 70 80
3 70 58 80
3 78 79 57
3 78 69 79
3 69 52 79
3 76 77 56
3 76 68 77
3 68 51 77
3 74 75 55
3 74 66 75
3 66 50 75
3 72 73 54
3 72 62 73
3 62 49 73
3 70 71 58
3 70 63 71
3 63 53 71
3 64 69 53
3 64 67 69
3 67 52 69
3 67 68 52
3 67 65 68
3 65 51 68
3 65 66 51
3 65 60 66
3 60 50 66
3 63 64 53
3 63 61 64
3 61 48 64
3 60 62 50
3 60 61 62
3 61 49 62
