ply
format ascii 1.0
comment Created in Blender version 4.1.1
element vertex 107
property float x
property float y
property float z
property float nx
property float ny
property float nz
property uchar red
property uchar green
property uchar blue
property uchar alpha
element face 190
property list uchar uint vertex_indices
end_header
3.8960316 -1.2998784 0.6136046 0.906943 -0.42115065 0.009297162 254 0 223 255
3.8374007 -1.021496 0.5300293 0.67862284 0.66295743 -0.31616205 254 0 223 255
2.3269508 -0.9945087 2.731532 0.22413805 -0.28825292 0.93095237 254 0 223 255
2.2683196 -0.7161264 2.6479568 -0.004199162 0.79584813 0.6054816 254 0 223 255
0.97609174 -2.5118437 -1.3749075 0.004187368 -0.79584384 -0.6054873 254 0 223 255
0.9174607 -2.2334614 -1.4584827 -0.2241294 0.28826356 -0.9309511 254 0 223 255
-0.5929892 -2.206474 0.74302006 -0.67861444 -0.66296107 0.3161724 254 0 223 255
-0.65162015 -1.9280918 0.65944475 -0.9069482 0.42113933 -0.009303033 254 0 223 255
9.5701275 -0.45347524 0.34997234 0.9069369 -0.42116368 0.009304211 254 142 120 255
9.520098 -0.21593142 0.27865747 0.6786232 0.66295743 -0.31616133 254 142 120 255
2.7711654 0.8697181 9.527134 0.22413869 -0.28825244 0.9309523 254 142 120 255
2.7211356 1.1072619 9.455818 -0.0042012483 0.7958577 0.60546887 254 142 120 255
0.16528964 -4.3570957 -6.0548286 0.0041865855 -0.7958437 -0.60548747 254 142 120 255
0.11525977 -4.1195517 -6.1261435 -0.22413243 0.2882784 -0.93094575 254 142 120 255
-6.6336718 -3.0339024 3.122332 -0.6786032 -0.66297245 0.31617266 254 142 120 255
-6.6837015 -2.7963586 3.0510173 -0.90694845 0.4211388 -0.009303525 254 142 120 255
2.913241 1.0287161 9.059422 0.906943 -0.42115018 0.009322405 243 254 154 255
1.8551059 6.052778 7.5511084 0.6786247 0.6629572 -0.31615847 243 254 154 255
2.734569 1.063489 9.3005905 0.22414133 -0.2882505 0.93095225 243 254 154 255
1.6764338 6.0875506 7.7922783 -0.0041778907 0.7958565 0.60547084 243 254 154 255
-6.393326 -2.834116 2.7215426 0.004183434 -0.7958432 -0.6054881 243 254 154 255
-7.451462 2.1899457 1.2132304 -0.22415331 0.28826773 -0.93094414 243 254 154 255
-6.5719986 -2.799343 2.962712 -0.6786118 -0.66297406 0.3161509 243 254 154 255
-7.6301346 2.2247186 1.4543998 -0.90694946 0.42113653 -0.009305656 243 254 154 255
9.384464 -0.24535728 0.2757943 0.9069456 -0.42114523 0.0092944205 0 3 254 255
8.632509 3.3249507 -0.79607534 0.6786091 0.6629595 -0.31618726 0 3 254 255
2.888082 1.0189486 9.044537 0.22411507 -0.28827024 0.93095255 0 3 254 255
2.136127 4.5892563 7.9726663 -0.004198067 0.7958442 0.6054868 0 3 254 255
9.190458 -0.32588184 0.14367512 0.0042149946 -0.7958486 -0.6054809 0 3 254 255
8.438503 3.2444263 -0.9281945 -0.22412837 0.28825745 -0.9309533 0 3 254 255
2.6940775 0.9384241 8.912416 -0.67861915 -0.6629565 0.3161721 0 3 254 255
1.9421223 4.508732 7.840547 -0.9069391 0.42115933 -0.009284437 0 3 254 255
1.1332546 -1.326486 1.3294103 -0.41146624 -0.37306488 0.8315757 253 166 254 255
0.99209344 -1.3920045 1.2102034 -0.5334555 -0.42966723 0.72856796 253 166 254 255
0.87908155 -1.4594277 1.0649042 -0.63110286 -0.48794276 0.60300994 253 166 254 255
0.798562 -1.5261647 0.8990964 -0.70071983 -0.5455652 0.4597286 253 166 254 255
0.7536291 -1.5896506 0.719152 -0.7395092 -0.6004711 0.30423778 253 166 254 255
0.74600947 -1.6474459 0.5319861 -0.7461041 -0.6504016 0.14249991 253 166 254 255
0.7759961 -1.6973295 0.34479138 -0.7201812 -0.69351864 -0.019255549 253 166 254 255
0.8424366 -1.7373843 0.16476163 -0.6628085 -0.7280879 -0.17485061 253 166 254 255
0.9427776 -1.7660712 -0.0011847019 -0.5760616 -0.75292003 -0.31822062 253 166 254 255
1.0731632 -1.7822876 -0.14667034 -0.46340063 -0.7669226 -0.44394743 253 166 254 255
1.2285825 -1.7854104 -0.26610446 -0.32909158 -0.7696314 -0.5471436 253 166 254 255
1.403063 -1.7753197 -0.35489726 -0.1783389 -0.7608731 -0.6239129 253 166 254 255
1.5898995 -1.752403 -0.40963638 -0.016869731 -0.74110895 -0.67117274 253 166 254 255
1.7819121 -1.7175412 -0.42821825 0.1490506 -0.7109731 -0.68724155 253 166 254 255
1.9717216 -1.672074 -0.40992892 0.31307143 -0.671695 -0.6714254 253 166 254 255
2.1520338 -1.6177485 -0.35547096 0.46888506 -0.62472177 -0.6243954 253 166 254 255
2.3159196 -1.5566527 -0.26693743 0.6105006 -0.57195693 -0.5478634 253 166 254 255
2.4570808 -1.4911342 -0.14773053 0.73248434 -0.51532817 -0.44486356 253 166 254 255
2.5700927 -1.423711 -0.0024312735 0.8301372 -0.457079 -0.31929767 253 166 254 255
2.6506124 -1.356974 0.16337648 0.89973354 -0.39935884 -0.17604566 253 166 254 255
2.6955452 -1.293488 0.34332094 0.93854344 -0.34455025 -0.020525679 253 166 254 255
2.7031648 -1.2356927 0.5304868 0.94513285 -0.29459327 0.14120428 253 166 254 255
2.6731782 -1.1858091 0.7176815 0.91921544 -0.2515025 0.30296767 253 166 254 255
2.6067376 -1.1457543 0.8977113 0.8618206 -0.21682805 0.4585311 253 166 254 255
2.5063968 -1.1170673 1.0636576 0.77509594 -0.19210166 0.6019329 253 166 254 255
2.3760111 -1.100851 1.2091434 0.66242945 -0.17807272 0.72765183 253 166 254 255
2.2205918 -1.0977283 1.3285775 0.5281259 -0.17539006 0.8308557 253 166 254 255
2.0461113 -1.107819 1.4173702 0.37735265 -0.18405092 0.9075958 253 166 254 255
1.8592747 -1.1307356 1.4721093 0.21590397 -0.20391238 0.9548849 253 166 254 255
1.6672623 -1.1655974 1.4906912 0.0499781 -0.23402196 0.97094584 253 166 254 255
1.4774528 -1.2110646 1.4724017 -0.11403709 -0.2733268 0.95513767 253 166 254 255
1.2971404 -1.2653902 1.4179438 -0.26986468 -0.32023385 0.90808773 253 166 254 255
1.3291149 0.4361465 -0.032487094 -0.19773614 0.9388579 -0.28186175 253 166 254 255
1.8647888 3.2714014 7.0024114 0.19773693 -0.9388576 0.28186223 254 170 49 255
1.5006394 3.4950695 6.04172 -0.16641316 -0.71518826 -0.6788316 254 170 49 255
2.4745839 3.7821765 6.314793 0.8075316 -0.4280814 -0.40575722 254 170 49 255
2.4547544 4.0806303 7.3228145 0.7877017 -0.12962854 0.6022644 254 170 49 255
1.4685504 3.9779673 7.672725 -0.19850202 -0.23229009 0.95217544 254 170 49 255
0.87888235 3.6160736 6.880961 -0.7881719 -0.59418297 0.16041058 254 170 49 255
1.865555 4.442551 5.768375 0.19850197 0.23229036 -0.95217544 254 170 49 255
2.455223 4.8044443 6.5601397 0.7881718 0.5941831 -0.16041052 254 170 49 255
1.833466 4.925449 7.3993807 0.16641352 0.7151877 0.67883205 254 170 49 255
0.85952157 4.638342 7.126307 -0.80753165 0.42808118 0.40575734 254 170 49 255
0.87935096 4.339888 6.118285 -0.7877017 0.12962806 -0.6022643 254 170 49 255
1.4693165 5.149117 6.438688 -0.19773704 0.93885756 -0.28186244 254 170 49 255
2.2579308 3.4067917 6.647729 0.5908794 -0.80346656 -0.072821975 254 170 49 255
1.6854652 3.2380362 6.4872217 0.018412545 -0.9722231 -0.23333056 254 170 49 255
2.0438914 3.5382614 6.083047 0.37683916 -0.67199665 -0.6375052 254 170 49 255
1.105965 3.440631 6.415832 -0.5610886 -0.7696271 -0.30471885 254 170 49 255
1.3200082 3.3091602 6.980511 -0.34704658 -0.9010985 0.2599616 254 170 49 255
2.2462778 3.5822182 7.2402263 0.5792251 -0.6280408 0.51967585 254 170 49 255
2.6047077 3.8824453 6.836057 0.93765527 -0.3278126 0.115504965 254 170 49 255
1.6666038 3.521874 7.4458947 -0.000448972 -0.688384 0.7253462 254 170 49 255
2.0133786 3.9975276 7.634227 0.3463242 -0.21272892 0.91367704 254 170 49 255
1.0871019 3.7244687 7.374511 -0.5799523 -0.48578858 0.6539607 254 170 49 255
1.1062357 3.866077 5.9675407 -0.5608148 -0.34418252 -0.7530106 254 170 49 255
0.74077755 3.9372015 6.4608326 -0.92627615 -0.2730575 -0.259715 254 170 49 255
2.2583852 4.0951757 5.922376 0.59133255 -0.115083195 -0.79817396 254 170 49 255
1.685914 3.9264174 5.761864 0.01886085 -0.28384206 -0.9586856 254 170 49 255
2.5933282 4.4833174 6.9802675 0.92627615 0.2730577 0.25971517 254 170 49 255
2.604987 4.307893 6.3877635 0.9379344 0.097633556 -0.3327863 254 170 49 255
1.6481912 4.4941015 7.6792355 -0.018861085 0.28384197 0.9586855 254 170 49 255
2.22787 4.5544415 7.4735594 0.560815 0.3441826 0.7530104 254 170 49 255
0.7291184 4.112626 7.053336 -0.9379345 -0.09763329 0.332786 254 170 49 255
1.0757201 4.3253427 7.5187235 -0.5913325 0.115083225 0.79817396 254 170 49 255
1.3207271 4.422991 5.806874 -0.3463239 0.21272966 -0.91367704 254 170 49 255
2.2470036 4.6960497 6.06659 0.5799523 0.4857887 -0.6539607 254 170 49 255
2.2281404 4.979887 7.025268 0.56108874 0.76962703 0.30471873 254 170 49 255
1.290214 4.8822575 7.3580537 -0.37683913 0.67199606 0.63750553 254 170 49 255
0.72939795 4.5380735 6.6050434 -0.9376555 0.32781225 -0.11550476 254 170 49 255
1.6675019 4.898645 5.9952054 0.00044886768 0.6883843 -0.72534597 254 170 49 255
1.0878277 4.8382998 6.2008743 -0.57922506 0.62804085 -0.5196758 254 170 49 255
2.0140975 5.1113586 6.4605894 0.3470468 0.90109843 -0.2599613 254 170 49 255
1.6486404 5.1824827 6.953879 -0.018412292 0.97222304 0.23333059 254 170 49 255
1.076175 5.013727 6.7933717 -0.59087956 0.80346644 0.072821796 254 170 49 255
3 1 2 0
3 3 6 2
3 7 4 6
3 5 0 4
3 6 0 2
3 3 5 7
3 9 10 8
3 11 14 10
3 15 12 14
3 13 8 12
3 14 8 10
3 11 13 15
3 17 18 16
3 19 22 18
3 23 20 22
3 21 16 20
3 22 16 18
3 19 21 23
3 25 26 24
3 27 30 26
3 31 28 30
3 29 24 28
3 30 24 26
3 27 29 31
3 32 64 33
3 33 64 34
3 34 64 35
3 35 64 36
3 36 64 37
3 37 64 38
3 38 64 39
3 39 64 40
3 40 64 41
3 41 64 42
3 42 64 43
3 43 64 44
3 44 64 45
3 45 64 46
3 46 64 47
3 47 64 48
3 48 64 49
3 49 64 50
3 50 64 51
3 51 64 52
3 52 64 53
3 53 64 54
3 54 64 55
3 55 64 56
3 56 64 57
3 57 64 58
3 58 64 59
3 59 64 60
3 60 64 61
3 61 64 62
3 47 55 63
3 62 64 63
3 63 64 32
3 65 78 77
3 66 78 80
3 65 77 82
3 65 82 84
3 65 84 81
3 66 80 87
3 67 79 89
3 68 83 91
3 69 85 93
3 70 86 95
3 66 87 90
3 67 89 92
3 68 91 94
3 69 93 96
3 70 95 88
3 71 97 102
3 72 98 104
3 73 99 105
3 74 100 106
3 75 101 103
3 103 106 76
3 103 101 106
3 101 74 106
3 106 105 76
3 106 100 105
3 100 73 105
3 105 104 76
3 105 99 104
3 99 72 104
3 104 102 76
3 104 98 102
3 98 71 102
3 102 103 76
3 102 97 103
3 97 75 103
3 88 101 75
3 88 95 101
3 95 74 101
3 96 100 74
3 96 93 100
3 93 73 100
3 94 99 73
3 94 91 99
3 91 72 99
3 92 98 72
3 92 89 98
3 89 71 98
3 90 97 71
3 90 87 97
3 87 75 97
3 95 96 74
3 95 86 96
3 86 69 96
3 93 94 73
3 93 85 94
3 85 68 94
3 91 92 72
3 91 83 92
3 83 67 92
3 89 90 71
3 89 79 90
3 79 66 90
3 87 88 75
3 87 80 88
3 80 70 88
3 81 86 70
3 81 84 86
3 84 69 86
3 84 85 69
3 84 82 85
3 82 68 85
3 82 83 68
3 82 77 83
3 77 67 83
3 80 81 70
3 80 78 81
3 78 65 81
3 77 79 67
3 77 78 79
3 78 66 79
3 1 3 2
3 3 7 6
3 7 5 4
3 5 1 0
3 6 4 0
3 3 1 5
3 9 11 10
3 11 15 14
3 15 13 12
3 13 9 8
3 14 12 8
3 11 9 13
3 17 19 18
3 19 23 22
3 23 21 20
3 21 17 16
3 22 20 16
3 19 17 21
3 25 27 26
3 27 31 30
3 31 29 28
3 29 25 24
3 30 28 24
3 27 25 29
3 63 32 33
3 33 34 35
3 35 36 37
3 37 38 39
3 39 40 41
3 41 42 43
3 43 44 45
3 45 46 47
3 47 48 49
3 49 50 51
3 51 52 53
3 53 54 55
3 55 56 57
3 57 58 59
3 59 60 61
3 61 62 63
3 63 33 35
3 35 37 39
3 39 41 43
3 43 45 47
3 47 49 51
3 51 53 55
3 55 57 59
3 59 61 63
3 63 35 39
3 39 43 47
3 47 51 55
3 55 59 63
3 63 39 47
