ply
format ascii 1.0
comment Created in Blender version 4.1.1
element vertex 41
property float x
property float y
property float z
property float nx
property float ny
property float nz
property uchar red
property uchar green
property uchar blue
property uchar alpha
element face 74
property list uchar uint vertex_indices
end_header
0 1.3512645 -1 0 -0.50328267 -0.8641219 254 113 246 255
0.19509032 1.3512645 -0.98078525 0.16858344 -0.5032686 -0.847526 254 113 246 255
0.38268346 1.3512645 -0.9238795 0.33068508 -0.50328267 -0.7983445 254 113 246 255
0.55557024 1.3512645 -0.8314696 0.4800974 -0.50323045 -0.7185163 254 113 246 255
0.70710677 1.3512645 -0.70710677 0.61102647 -0.50328255 -0.61102647 254 113 246 255
0.8314696 1.3512645 -0.55557024 0.7184975 -0.5032687 -0.48008528 254 113 246 255
0.9238795 1.3512645 -0.38268346 0.7983445 -0.50328267 -0.33068508 254 113 246 255
0.98078525 1.3512645 -0.19509032 0.8475501 -0.50322634 -0.16858827 254 113 246 255
1 1.3512645 0 0.8641219 -0.50328255 0 254 113 246 255
0.98078525 1.3512645 0.19509032 0.8475258 -0.50326896 0.16858357 254 113 246 255
0.9238795 1.3512645 0.38268346 0.7983445 -0.5032827 0.33068508 254 113 246 255
0.8314696 1.3512645 0.55557024 0.7185163 -0.5032306 0.4800973 254 113 246 255
0.70710677 1.3512645 0.70710677 0.61102647 -0.50328255 0.61102647 254 113 246 255
0.55557024 1.3512645 0.8314696 0.48008505 -0.5032683 0.718498 254 113 246 255
0.38268346 1.3512645 0.9238795 0.33068508 -0.50328267 0.7983445 254 113 246 255
0.19509032 1.3512645 0.98078525 0.16858582 -0.5032474 0.8475382 254 113 246 255
0 1.3512645 1 0 -0.50328267 0.8641219 254 113 246 255
-0.19509032 1.3512645 0.98078525 -0.16858344 -0.5032686 0.847526 254 113 246 255
-0.38268346 1.3512645 0.9238795 -0.33068508 -0.50328267 0.7983445 254 113 246 255
-0.55557024 1.3512645 0.8314696 -0.4800974 -0.50323045 0.7185163 254 113 246 255
-0.70710677 1.3512645 0.70710677 -0.61102647 -0.50328255 0.61102647 254 113 246 255
-0.8314696 1.3512645 0.55557024 -0.7184975 -0.5032687 0.48008528 254 113 246 255
-0.9238795 1.3512645 0.38268346 -0.7983445 -0.50328267 0.33068508 254 113 246 255
-0.98078525 1.3512645 0.19509032 -0.8475501 -0.50322634 0.16858827 254 113 246 255
-1 1.3512645 0 -0.8641219 -0.50328255 -0 254 113 246 255
-0.98078525 1.3512645 -0.19509032 -0.8475258 -0.50326896 -0.16858357 254 113 246 255
-0.9238795 1.3512645 -0.38268346 -0.7983445 -0.5032827 -0.33068508 254 113 246 255
-0.8314696 1.3512645 -0.55557024 -0.7185163 -0.5032306 -0.4800973 254 113 246 255
-0.70710677 1.3512645 -0.70710677 -0.61102647 -0.50328255 -0.61102647 254 113 246 255
-0.55557024 1.3512645 -0.8314696 -0.48008505 -0.5032683 -0.718498 254 113 246 255
-0.38268346 1.3512645 -0.9238795 -0.33068508 -0.50328267 -0.7983445 254 113 246 255
-0.19509032 1.3512645 -0.98078525 -0.16858582 -0.5032474 -0.8475382 254 113 246 255
0 3.3512645 0 -7.451353e-08 1 -1.7883247e-08 254 113 246 255
1.4824011 0.44126344 -0.7795983 0.8558784 0.25475442 -0.45008028 254 166 81 255
1.3353934 -0.41268468 1.0229447 0.7709728 -0.23827295 0.5906158 254 166 81 255
0.008673921 1.7057165 -0.30075932 0.0050102733 0.9847912 -0.17366965 254 166 81 255
-0.13833381 0.8517684 1.5017837 -0.07986617 0.49179193 0.8670422 254 166 81 255
0.13833381 -0.8517685 -1.5017837 0.07986796 -0.49174544 -0.86706835 254 166 81 255
-0.008673921 -1.7057166 0.30075932 -0.005005688 -0.98480046 0.17361735 254 166 81 255
-1.3353934 0.41268468 -1.0229447 -0.7710067 0.23825407 -0.5905791 254 166 81 255
-1.4824011 -0.44126344 0.7795983 -0.8558509 -0.25477266 0.4501223 254 166 81 255
3 0 32 1
3 1 32 2
3 2 32 3
3 3 32 4
3 4 32 5
3 5 32 6
3 6 32 7
3 7 32 8
3 8 32 9
3 9 32 10
3 10 32 11
3 11 32 12
3 12 32 13
3 13 32 14
3 14 32 15
3 15 32 16
3 16 32 17
3 17 32 18
3 18 32 19
3 19 32 20
3 20 32 21
3 21 32 22
3 22 32 23
3 23 32 24
3 24 32 25
3 25 32 26
3 26 32 27
3 27 32 28
3 28 32 29
3 29 32 30
3 15 23 31
3 30 32 31
3 31 32 0
3 37 35 33
3 36 39 40
3 39 38 40
3 34 40 38
3 33 36 34
3 38 33 34
3 31 0 1
3 1 2 3
3 3 4 5
3 5 6 7
3 7 8 9
3 9 10 11
3 11 12 13
3 13 14 15
3 15 16 17
3 17 18 19
3 19 20 21
3 21 22 23
3 23 24 25
3 25 26 27
3 27 28 29
3 29 30 31
3 31 1 3
3 3 5 7
3 7 9 11
3 11 13 15
3 15 17 19
3 19 21 23
3 23 25 27
3 27 29 31
3 31 3 7
3 7 11 15
3 15 19 23
3 23 27 31
3 31 7 15
3 37 39 35
3 36 35 39
3 39 37 38
3 34 36 40
3 33 35 36
3 38 37 33
