ply
format ascii 1.0
comment Created by Blender 3.0.1 - www.blender.org
element vertex 264
property float x
property float y
property float z
property float nx
property float ny
property float nz
property uchar red
property uchar green
property uchar blue
property uchar alpha
element face 92
property list uchar uint vertex_indices
end_header
-0.869949 -0.973572 1.138133 0.379927 -0.381532 0.842668 34 255 22 255
1.629802 0.210508 0.547203 0.379927 -0.381532 0.842668 34 255 22 255
-0.006237 0.783953 1.544467 0.379927 -0.381532 0.842668 34 255 22 255
1.629802 0.210508 0.547203 0.818020 -0.286723 -0.498632 34 255 22 255
0.006237 -0.783953 -1.544467 0.818020 -0.286723 -0.498632 34 255 22 255
0.869949 0.973572 -1.138133 0.818020 -0.286723 -0.498632 34 255 22 255
0.766090 -1.547017 0.140869 -0.431856 -0.878762 -0.203167 34 255 22 255
-1.629802 -0.210508 -0.547203 -0.431856 -0.878762 -0.203167 34 255 22 255
0.006237 -0.783953 -1.544467 -0.431856 -0.878762 -0.203167 34 255 22 255
-0.766090 1.547017 -0.140869 -0.379927 0.381532 -0.842668 34 255 22 255
0.006237 -0.783953 -1.544467 -0.379927 0.381532 -0.842668 34 255 22 255
-1.629802 -0.210508 -0.547203 -0.379927 0.381532 -0.842668 34 255 22 255
-0.006237 0.783953 1.544467 0.431856 0.878762 0.203167 34 255 22 255
0.869949 0.973572 -1.138133 0.431856 0.878762 0.203167 34 255 22 255
-0.766090 1.547017 -0.140869 0.431856 0.878762 0.203167 34 255 22 255
-0.869949 -0.973572 1.138133 -0.818020 0.286723 0.498632 34 255 22 255
-0.766090 1.547017 -0.140869 -0.818020 0.286723 0.498632 34 255 22 255
-1.629802 -0.210508 -0.547203 -0.818020 0.286723 0.498632 34 255 22 255
0.766090 -1.547017 0.140869 0.379927 -0.381532 0.842668 34 255 22 255
0.766090 -1.547017 0.140869 0.818020 -0.286723 -0.498632 34 255 22 255
-0.869949 -0.973572 1.138133 -0.431856 -0.878762 -0.203167 34 255 22 255
0.869949 0.973572 -1.138133 -0.379927 0.381532 -0.842668 34 255 22 255
1.629802 0.210508 0.547203 0.431856 0.878762 0.203167 34 255 22 255
-0.006237 0.783953 1.544467 -0.818020 0.286723 0.498632 34 255 22 255
-0.388623 0.053169 0.000000 0.102381 -0.943523 0.315090 24 0 255 255
0.036699 0.202515 0.309012 0.102381 -0.943523 0.315090 24 0 255 255
-0.551079 0.202515 0.499995 0.102381 -0.943523 0.315090 24 0 255 255
0.334984 0.605950 0.525725 0.700224 -0.661699 0.268032 24 0 255 255
0.036699 0.202515 0.309012 0.700224 -0.661699 0.268032 24 0 255 255
0.462025 0.527433 0.000000 0.700224 -0.661699 0.268032 24 0 255 255
-0.388623 0.053169 0.000000 -0.268034 -0.943523 0.194736 24 0 255 255
-0.551079 0.202515 0.499995 -0.268034 -0.943523 0.194736 24 0 255 255
-0.914353 0.202517 0.000000 -0.268034 -0.943523 0.194736 24 0 255 255
-0.388623 0.053169 0.000000 -0.268034 -0.943523 -0.194736 24 0 255 255
-0.914353 0.202517 0.000000 -0.268034 -0.943523 -0.194736 24 0 255 255
-0.551079 0.202515 -0.499995 -0.268034 -0.943523 -0.194736 24 0 255 255
-0.388623 0.053169 0.000000 0.102381 -0.943524 -0.315090 24 0 255 255
-0.551079 0.202515 -0.499995 0.102381 -0.943524 -0.315090 24 0 255 255
0.036699 0.202515 -0.309011 0.102381 -0.943524 -0.315090 24 0 255 255
0.334984 0.605950 0.525725 0.904989 -0.330385 0.268032 24 0 255 255
0.462025 0.527433 0.000000 0.904989 -0.330385 0.268032 24 0 255 255
0.562434 1.053169 0.309013 0.904989 -0.330385 0.268032 24 0 255 255
-0.665011 0.605949 0.850649 0.024747 -0.330386 0.943521 24 0 255 255
-0.125755 0.527431 0.809012 0.024747 -0.330386 0.943521 24 0 255 255
-0.388623 1.053169 1.000000 0.024747 -0.330386 0.943521 24 0 255 255
-1.283050 0.605953 0.000000 -0.889697 -0.330385 0.315094 24 0 255 255
-1.076813 0.527433 0.499997 -0.889697 -0.330385 0.315094 24 0 255 255
-1.339681 1.053169 0.309013 -0.889697 -0.330385 0.315094 24 0 255 255
-0.665011 0.605949 -0.850649 -0.574602 -0.330388 -0.748783 24 0 255 255
-1.076813 0.527433 -0.499997 -0.574602 -0.330388 -0.748783 24 0 255 255
-0.976409 1.053169 -0.809017 -0.574602 -0.330388 -0.748783 24 0 255 255
0.334984 0.605950 -0.525725 0.534576 -0.330386 -0.777865 24 0 255 255
-0.125755 0.527432 -0.809012 0.534576 -0.330386 -0.777865 24 0 255 255
0.199162 1.053169 -0.809017 0.534576 -0.330386 -0.777865 24 0 255 255
0.334984 0.605950 0.525725 0.802609 -0.125627 0.583126 24 0 255 255
0.562434 1.053169 0.309013 0.802609 -0.125627 0.583126 24 0 255 255
0.199162 1.053169 0.809017 0.802609 -0.125627 0.583126 24 0 255 255
-0.665011 0.605949 0.850649 -0.306569 -0.125629 0.943522 24 0 255 255
-0.388623 1.053169 1.000000 -0.306569 -0.125629 0.943522 24 0 255 255
-0.976409 1.053169 0.809017 -0.306569 -0.125629 0.943522 24 0 255 255
-1.283050 0.605953 0.000000 -0.992077 -0.125629 -0.000000 24 0 255 255
-1.339681 1.053169 0.309013 -0.992077 -0.125629 -0.000000 24 0 255 255
-1.339681 1.053169 -0.309013 -0.992077 -0.125629 -0.000000 24 0 255 255
-0.665011 0.605949 -0.850649 -0.306569 -0.125629 -0.943522 24 0 255 255
-0.976409 1.053169 -0.809017 -0.306569 -0.125629 -0.943522 24 0 255 255
-0.388623 1.053169 -1.000000 -0.306569 -0.125629 -0.943522 24 0 255 255
0.334984 0.605950 -0.525725 0.802609 -0.125627 -0.583127 24 0 255 255
0.199162 1.053169 -0.809017 0.802609 -0.125627 -0.583127 24 0 255 255
0.562435 1.053169 -0.309013 0.802609 -0.125627 -0.583127 24 0 255 255
-0.112235 1.500389 0.850649 0.408946 0.661698 0.628425 24 0 255 255
0.299566 1.578905 0.499997 0.408946 0.661698 0.628425 24 0 255 255
-0.226168 1.903824 0.499995 0.408946 0.661698 0.628425 24 0 255 255
-1.112231 1.500389 0.525725 -0.471300 0.661698 0.583122 24 0 255 255
-0.651492 1.578907 0.809012 -0.471300 0.661698 0.583122 24 0 255 255
-0.813946 1.903823 0.309012 -0.471300 0.661698 0.583122 24 0 255 255
-1.112231 1.500389 -0.525725 -0.700224 0.661699 -0.268032 24 0 255 255
-1.239271 1.578905 0.000000 -0.700224 0.661699 -0.268032 24 0 255 255
-0.813946 1.903824 -0.309011 -0.700224 0.661699 -0.268032 24 0 255 255
-0.112235 1.500389 -0.850649 0.038530 0.661699 -0.748779 24 0 255 255
-0.651492 1.578907 -0.809012 0.038530 0.661699 -0.748779 24 0 255 255
-0.226168 1.903823 -0.499995 0.038530 0.661699 -0.748779 24 0 255 255
0.505803 1.500385 0.000000 0.724042 0.661695 -0.194736 24 0 255 255
0.299566 1.578905 -0.499997 0.724042 0.661695 -0.194736 24 0 255 255
0.137106 1.903821 0.000000 0.724042 0.661695 -0.194736 24 0 255 255
0.137106 1.903821 0.000000 0.268034 0.943523 -0.194737 24 0 255 255
-0.226168 1.903823 -0.499995 0.268034 0.943523 -0.194737 24 0 255 255
-0.388623 2.053169 0.000000 0.268034 0.943523 -0.194737 24 0 255 255
0.137106 1.903821 0.000000 0.491119 0.794658 -0.356821 24 0 255 255
0.299566 1.578905 -0.499997 0.491119 0.794658 -0.356821 24 0 255 255
-0.226168 1.903823 -0.499995 0.491119 0.794658 -0.356821 24 0 255 255
0.299566 1.578905 -0.499997 0.408946 0.661699 -0.628425 24 0 255 255
-0.112235 1.500389 -0.850649 0.408946 0.661699 -0.628425 24 0 255 255
-0.226168 1.903823 -0.499995 0.408946 0.661699 -0.628425 24 0 255 255
-0.226168 1.903823 -0.499995 -0.102380 0.943523 -0.315090 24 0 255 255
-0.813946 1.903824 -0.309011 -0.102380 0.943523 -0.315090 24 0 255 255
-0.388623 2.053169 0.000000 -0.102380 0.943523 -0.315090 24 0 255 255
-0.226168 1.903823 -0.499995 -0.187594 0.794658 -0.577345 24 0 255 255
-0.651492 1.578907 -0.809012 -0.187594 0.794658 -0.577345 24 0 255 255
-0.813946 1.903824 -0.309011 -0.187594 0.794658 -0.577345 24 0 255 255
-0.651492 1.578907 -0.809012 -0.471300 0.661698 -0.583122 24 0 255 255
-1.112231 1.500389 -0.525725 -0.471300 0.661698 -0.583122 24 0 255 255
-0.813946 1.903824 -0.309011 -0.471300 0.661698 -0.583122 24 0 255 255
-0.813946 1.903824 -0.309011 -0.331304 0.943524 0.000000 24 0 255 255
-0.813946 1.903823 0.309012 -0.331304 0.943524 0.000000 24 0 255 255
-0.388623 2.053169 0.000000 -0.331304 0.943524 0.000000 24 0 255 255
-0.813946 1.903824 -0.309011 -0.607061 0.794656 0.000000 24 0 255 255
-1.239271 1.578905 0.000000 -0.607061 0.794656 0.000000 24 0 255 255
-0.813946 1.903823 0.309012 -0.607061 0.794656 0.000000 24 0 255 255
-1.239271 1.578905 0.000000 -0.700224 0.661699 0.268032 24 0 255 255
-1.112231 1.500389 0.525725 -0.700224 0.661699 0.268032 24 0 255 255
-0.813946 1.903823 0.309012 -0.700224 0.661699 0.268032 24 0 255 255
-0.813946 1.903823 0.309012 -0.102381 0.943523 0.315090 24 0 255 255
-0.226168 1.903824 0.499995 -0.102381 0.943523 0.315090 24 0 255 255
-0.388623 2.053169 0.000000 -0.102381 0.943523 0.315090 24 0 255 255
-0.813946 1.903823 0.309012 -0.187594 0.794658 0.577345 24 0 255 255
-0.651492 1.578907 0.809012 -0.187594 0.794658 0.577345 24 0 255 255
-0.226168 1.903824 0.499995 -0.187594 0.794658 0.577345 24 0 255 255
-0.651492 1.578907 0.809012 0.038530 0.661699 0.748779 24 0 255 255
-0.112235 1.500389 0.850649 0.038530 0.661699 0.748779 24 0 255 255
-0.226168 1.903824 0.499995 0.038530 0.661699 0.748779 24 0 255 255
-0.226168 1.903824 0.499995 0.268034 0.943523 0.194736 24 0 255 255
0.137106 1.903821 0.000000 0.268034 0.943523 0.194736 24 0 255 255
-0.388623 2.053169 0.000000 0.268034 0.943523 0.194736 24 0 255 255
-0.226168 1.903824 0.499995 0.491120 0.794657 0.356821 24 0 255 255
0.299566 1.578905 0.499997 0.491120 0.794657 0.356821 24 0 255 255
0.137106 1.903821 0.000000 0.491120 0.794657 0.356821 24 0 255 255
0.299566 1.578905 0.499997 0.724042 0.661695 0.194736 24 0 255 255
0.505803 1.500385 0.000000 0.724042 0.661695 0.194736 24 0 255 255
0.137106 1.903821 0.000000 0.724042 0.661695 0.194736 24 0 255 255
0.562435 1.053169 -0.309013 0.889697 0.330385 -0.315094 24 0 255 255
0.299566 1.578905 -0.499997 0.889697 0.330385 -0.315094 24 0 255 255
0.505803 1.500385 0.000000 0.889697 0.330385 -0.315094 24 0 255 255
0.562435 1.053169 -0.309013 0.794656 0.187595 -0.577348 24 0 255 255
0.199162 1.053169 -0.809017 0.794656 0.187595 -0.577348 24 0 255 255
0.299566 1.578905 -0.499997 0.794656 0.187595 -0.577348 24 0 255 255
0.199162 1.053169 -0.809017 0.574602 0.330388 -0.748783 24 0 255 255
-0.112235 1.500389 -0.850649 0.574602 0.330388 -0.748783 24 0 255 255
0.299566 1.578905 -0.499997 0.574602 0.330388 -0.748783 24 0 255 255
-0.388623 1.053169 -1.000000 -0.024747 0.330386 -0.943521 24 0 255 255
-0.651492 1.578907 -0.809012 -0.024747 0.330386 -0.943521 24 0 255 255
-0.112235 1.500389 -0.850649 -0.024747 0.330386 -0.943521 24 0 255 255
-0.388623 1.053169 -1.000000 -0.303531 0.187597 -0.934171 24 0 255 255
-0.976409 1.053169 -0.809017 -0.303531 0.187597 -0.934171 24 0 255 255
-0.651492 1.578907 -0.809012 -0.303531 0.187597 -0.934171 24 0 255 255
-0.976409 1.053169 -0.809017 -0.534576 0.330387 -0.777864 24 0 255 255
-1.112231 1.500389 -0.525725 -0.534576 0.330387 -0.777864 24 0 255 255
-0.651492 1.578907 -0.809012 -0.534576 0.330387 -0.777864 24 0 255 255
-1.339681 1.053169 -0.309013 -0.904989 0.330385 -0.268032 24 0 255 255
-1.239271 1.578905 0.000000 -0.904989 0.330385 -0.268032 24 0 255 255
-1.112231 1.500389 -0.525725 -0.904989 0.330385 -0.268032 24 0 255 255
-1.339681 1.053169 -0.309013 -0.982246 0.187599 -0.000000 24 0 255 255
-1.339681 1.053169 0.309013 -0.982246 0.187599 -0.000000 24 0 255 255
-1.239271 1.578905 0.000000 -0.982246 0.187599 -0.000000 24 0 255 255
-1.339681 1.053169 0.309013 -0.904989 0.330385 0.268032 24 0 255 255
-1.112231 1.500389 0.525725 -0.904989 0.330385 0.268032 24 0 255 255
-1.239271 1.578905 0.000000 -0.904989 0.330385 0.268032 24 0 255 255
-0.976409 1.053169 0.809017 -0.534576 0.330387 0.777865 24 0 255 255
-0.651492 1.578907 0.809012 -0.534576 0.330387 0.777865 24 0 255 255
-1.112231 1.500389 0.525725 -0.534576 0.330387 0.777865 24 0 255 255
-0.976409 1.053169 0.809017 -0.303531 0.187597 0.934171 24 0 255 255
-0.388623 1.053169 1.000000 -0.303531 0.187597 0.934171 24 0 255 255
-0.651492 1.578907 0.809012 -0.303531 0.187597 0.934171 24 0 255 255
-0.388623 1.053169 1.000000 -0.024747 0.330386 0.943521 24 0 255 255
-0.112235 1.500389 0.850649 -0.024747 0.330386 0.943521 24 0 255 255
-0.651492 1.578907 0.809012 -0.024747 0.330386 0.943521 24 0 255 255
0.199162 1.053169 0.809017 0.574602 0.330388 0.748783 24 0 255 255
0.299566 1.578905 0.499997 0.574602 0.330388 0.748783 24 0 255 255
-0.112235 1.500389 0.850649 0.574602 0.330388 0.748783 24 0 255 255
0.199162 1.053169 0.809017 0.794656 0.187595 0.577348 24 0 255 255
0.562434 1.053169 0.309013 0.794656 0.187595 0.577348 24 0 255 255
0.299566 1.578905 0.499997 0.794656 0.187595 0.577348 24 0 255 255
0.562434 1.053169 0.309013 0.889697 0.330385 0.315095 24 0 255 255
0.505803 1.500385 0.000000 0.889697 0.330385 0.315095 24 0 255 255
0.299566 1.578905 0.499997 0.889697 0.330385 0.315095 24 0 255 255
0.199162 1.053169 -0.809017 0.306569 0.125629 -0.943522 24 0 255 255
-0.388623 1.053169 -1.000000 0.306569 0.125629 -0.943522 24 0 255 255
-0.112235 1.500389 -0.850649 0.306569 0.125629 -0.943522 24 0 255 255
0.199162 1.053169 -0.809017 0.303531 -0.187597 -0.934171 24 0 255 255
-0.125755 0.527432 -0.809012 0.303531 -0.187597 -0.934171 24 0 255 255
-0.388623 1.053169 -1.000000 0.303531 -0.187597 -0.934171 24 0 255 255
-0.125755 0.527432 -0.809012 0.024747 -0.330386 -0.943521 24 0 255 255
-0.665011 0.605949 -0.850649 0.024747 -0.330386 -0.943521 24 0 255 255
-0.388623 1.053169 -1.000000 0.024747 -0.330386 -0.943521 24 0 255 255
-0.976409 1.053169 -0.809017 -0.802609 0.125627 -0.583127 24 0 255 255
-1.339681 1.053169 -0.309013 -0.802609 0.125627 -0.583127 24 0 255 255
-1.112231 1.500389 -0.525725 -0.802609 0.125627 -0.583127 24 0 255 255
-0.976409 1.053169 -0.809017 -0.794656 -0.187595 -0.577348 24 0 255 255
-1.076813 0.527433 -0.499997 -0.794656 -0.187595 -0.577348 24 0 255 255
-1.339681 1.053169 -0.309013 -0.794656 -0.187595 -0.577348 24 0 255 255
-1.076813 0.527433 -0.499997 -0.889697 -0.330385 -0.315095 24 0 255 255
-1.283050 0.605953 0.000000 -0.889697 -0.330385 -0.315095 24 0 255 255
-1.339681 1.053169 -0.309013 -0.889697 -0.330385 -0.315095 24 0 255 255
-1.339681 1.053169 0.309013 -0.802609 0.125628 0.583127 24 0 255 255
-0.976409 1.053169 0.809017 -0.802609 0.125628 0.583127 24 0 255 255
-1.112231 1.500389 0.525725 -0.802609 0.125628 0.583127 24 0 255 255
-1.339681 1.053169 0.309013 -0.794655 -0.187595 0.577348 24 0 255 255
-1.076813 0.527433 0.499997 -0.794655 -0.187595 0.577348 24 0 255 255
-0.976409 1.053169 0.809017 -0.794655 -0.187595 0.577348 24 0 255 255
-1.076813 0.527433 0.499997 -0.574602 -0.330388 0.748784 24 0 255 255
-0.665011 0.605949 0.850649 -0.574602 -0.330388 0.748784 24 0 255 255
-0.976409 1.053169 0.809017 -0.574602 -0.330388 0.748784 24 0 255 255
-0.388623 1.053169 1.000000 0.306569 0.125629 0.943522 24 0 255 255
0.199162 1.053169 0.809017 0.306569 0.125629 0.943522 24 0 255 255
-0.112235 1.500389 0.850649 0.306569 0.125629 0.943522 24 0 255 255
-0.388623 1.053169 1.000000 0.303531 -0.187597 0.934171 24 0 255 255
-0.125755 0.527431 0.809012 0.303531 -0.187597 0.934171 24 0 255 255
0.199162 1.053169 0.809017 0.303531 -0.187597 0.934171 24 0 255 255
-0.125755 0.527431 0.809012 0.534576 -0.330387 0.777865 24 0 255 255
0.334984 0.605950 0.525725 0.534576 -0.330387 0.777865 24 0 255 255
0.199162 1.053169 0.809017 0.534576 -0.330387 0.777865 24 0 255 255
0.562434 1.053169 0.309013 0.992077 0.125629 0.000000 24 0 255 255
0.562435 1.053169 -0.309013 0.992077 0.125629 0.000000 24 0 255 255
0.505803 1.500385 0.000000 0.992077 0.125629 0.000000 24 0 255 255
0.562434 1.053169 0.309013 0.982246 -0.187599 0.000000 24 0 255 255
0.462025 0.527433 0.000000 0.982246 -0.187599 0.000000 24 0 255 255
0.562435 1.053169 -0.309013 0.982246 -0.187599 0.000000 24 0 255 255
0.462025 0.527433 0.000000 0.904989 -0.330385 -0.268031 24 0 255 255
0.334984 0.605950 -0.525725 0.904989 -0.330385 -0.268031 24 0 255 255
0.562435 1.053169 -0.309013 0.904989 -0.330385 -0.268031 24 0 255 255
0.036699 0.202515 -0.309011 0.471300 -0.661699 -0.583122 24 0 255 255
-0.125755 0.527432 -0.809012 0.471300 -0.661699 -0.583122 24 0 255 255
0.334984 0.605950 -0.525725 0.471300 -0.661699 -0.583122 24 0 255 255
0.036699 0.202515 -0.309011 0.187594 -0.794658 -0.577345 24 0 255 255
-0.551079 0.202515 -0.499995 0.187594 -0.794658 -0.577345 24 0 255 255
-0.125755 0.527432 -0.809012 0.187594 -0.794658 -0.577345 24 0 255 255
-0.551079 0.202515 -0.499995 -0.038530 -0.661699 -0.748779 24 0 255 255
-0.665011 0.605949 -0.850649 -0.038530 -0.661699 -0.748779 24 0 255 255
-0.125755 0.527432 -0.809012 -0.038530 -0.661699 -0.748779 24 0 255 255
-0.551079 0.202515 -0.499995 -0.408946 -0.661698 -0.628425 24 0 255 255
-1.076813 0.527433 -0.499997 -0.408946 -0.661698 -0.628425 24 0 255 255
-0.665011 0.605949 -0.850649 -0.408946 -0.661698 -0.628425 24 0 255 255
-0.551079 0.202515 -0.499995 -0.491120 -0.794657 -0.356821 24 0 255 255
-0.914353 0.202517 0.000000 -0.491120 -0.794657 -0.356821 24 0 255 255
-1.076813 0.527433 -0.499997 -0.491120 -0.794657 -0.356821 24 0 255 255
-0.914353 0.202517 0.000000 -0.724042 -0.661695 -0.194736 24 0 255 255
-1.283050 0.605953 0.000000 -0.724042 -0.661695 -0.194736 24 0 255 255
-1.076813 0.527433 -0.499997 -0.724042 -0.661695 -0.194736 24 0 255 255
-0.914353 0.202517 0.000000 -0.724042 -0.661695 0.194736 24 0 255 255
-1.076813 0.527433 0.499997 -0.724042 -0.661695 0.194736 24 0 255 255
-1.283050 0.605953 0.000000 -0.724042 -0.661695 0.194736 24 0 255 255
-0.914353 0.202517 0.000000 -0.491119 -0.794657 0.356821 24 0 255 255
-0.551079 0.202515 0.499995 -0.491119 -0.794657 0.356821 24 0 255 255
-1.076813 0.527433 0.499997 -0.491119 -0.794657 0.356821 24 0 255 255
-0.551079 0.202515 0.499995 -0.408946 -0.661699 0.628425 24 0 255 255
-0.665011 0.605949 0.850649 -0.408946 -0.661699 0.628425 24 0 255 255
-1.076813 0.527433 0.499997 -0.408946 -0.661699 0.628425 24 0 255 255
0.462025 0.527433 0.000000 0.700224 -0.661699 -0.268032 24 0 255 255
0.036699 0.202515 -0.309011 0.700224 -0.661699 -0.268032 24 0 255 255
0.334984 0.605950 -0.525725 0.700224 -0.661699 -0.268032 24 0 255 255
0.462025 0.527433 0.000000 0.607060 -0.794656 0.000000 24 0 255 255
0.036699 0.202515 0.309012 0.607060 -0.794656 0.000000 24 0 255 255
0.036699 0.202515 -0.309011 0.607060 -0.794656 0.000000 24 0 255 255
0.036699 0.202515 0.309012 0.331304 -0.943524 0.000000 24 0 255 255
-0.388623 0.053169 0.000000 0.331304 -0.943524 0.000000 24 0 255 255
0.036699 0.202515 -0.309011 0.331304 -0.943524 0.000000 24 0 255 255
-0.551079 0.202515 0.499995 -0.038530 -0.661699 0.748779 24 0 255 255
-0.125755 0.527431 0.809012 -0.038530 -0.661699 0.748779 24 0 255 255
-0.665011 0.605949 0.850649 -0.038530 -0.661699 0.748779 24 0 255 255
-0.551079 0.202515 0.499995 0.187594 -0.794658 0.577345 24 0 255 255
0.036699 0.202515 0.309012 0.187594 -0.794658 0.577345 24 0 255 255
-0.125755 0.527431 0.809012 0.187594 -0.794658 0.577345 24 0 255 255
0.036699 0.202515 0.309012 0.471300 -0.661699 0.583122 24 0 255 255
0.334984 0.605950 0.525725 0.471300 -0.661699 0.583122 24 0 255 255
-0.125755 0.527431 0.809012 0.471300 -0.661699 0.583122 24 0 255 255
3 0 1 2
3 3 4 5
3 6 7 8
3 9 10 11
3 12 13 14
3 15 16 17
3 0 18 1
3 3 19 4
3 6 20 7
3 9 21 10
3 12 22 13
3 15 23 16
3 24 25 26
3 27 28 29
3 30 31 32
3 33 34 35
3 36 37 38
3 39 40 41
3 42 43 44
3 45 46 47
3 48 49 50
3 51 52 53
3 54 55 56
3 57 58 59
3 60 61 62
3 63 64 65
3 66 67 68
3 69 70 71
3 72 73 74
3 75 76 77
3 78 79 80
3 81 82 83
3 84 85 86
3 87 88 89
3 90 91 92
3 93 94 95
3 96 97 98
3 99 100 101
3 102 103 104
3 105 106 107
3 108 109 110
3 111 112 113
3 114 115 116
3 117 118 119
3 120 121 122
3 123 124 125
3 126 127 128
3 129 130 131
3 132 133 134
3 135 136 137
3 138 139 140
3 141 142 143
3 144 145 146
3 147 148 149
3 150 151 152
3 153 154 155
3 156 157 158
3 159 160 161
3 162 163 164
3 165 166 167
3 168 169 170
3 171 172 173
3 174 175 176
3 177 178 179
3 180 181 182
3 183 184 185
3 186 187 188
3 189 190 191
3 192 193 194
3 195 196 197
3 198 199 200
3 201 202 203
3 204 205 206
3 207 208 209
3 210 211 212
3 213 214 215
3 216 217 218
3 219 220 221
3 222 223 224
3 225 226 227
3 228 229 230
3 231 232 233
3 234 235 236
3 237 238 239
3 240 241 242
3 243 244 245
3 246 247 248
3 249 250 251
3 252 253 254
3 255 256 257
3 258 259 260
3 261 262 263
